{
  "accessors": [
    {
      "bufferView": 1,
      "componentType": 5126,
      "count": 18286,
      "max": [
        0.49262699484825134,
        0.18728980422019958,
        1.5619029998779297
      ],
      "min": [
        -0.585096001625061,
        -0.183137908577919,
        -0.0006430000066757202
      ],
      "type": "VEC3"
    },
    {
      "bufferView": 1,
      "byteOffset": 219432,
      "componentType": 5126,
      "count": 18286,
      "max": [
        0.999932587146759,
        0.9999990463256836,
        1.0
      ],
      "min": [
        -0.9999421238899231,
        -1.0,
        -1.0
      ],
      "type": "VEC3"
    },
    {
      "bufferView": 0,
      "componentType": 5125,
      "count": 89646,
      "type": "SCALAR"
    }
  ],
  "asset": {
    "extras": {
      "author": "VioletNova (https://sketchfab.com/VioletNova)",
      "license": "CC-BY-4.0 (http://creativecommons.org/licenses/by/4.0/)",
      "source": "https://sketchfab.com/3d-models/fortnite-big-boob-iris-beta-fdf5b3bec7984dc99ecb658ba8a54550",
      "title": "[Fortnite] big boob iris (beta)"
    },
    "generator": "Sketchfab-11.20.1",
    "version": "2.0"
  },
  "bufferViews": [
    {
      "buffer": 0,
      "byteLength": 358584,
      "name": "floatBufferViews",
      "target": 34963
    },
    {
      "buffer": 0,
      "byteLength": 438864,
      "byteOffset": 358584,
      "byteStride": 12,
      "name": "floatBufferViews",
      "target": 34962
    }
  ],
  "buffers": [
    {
      "byteLength": 797448,
      "uri": "scene.bin"
    }
  ],
  "materials": [
    {
      "doubleSided": true,
      "name": "Scene_-_Root",
      "pbrMetallicRoughness": {
        "metallicFactor": 0.0,
        "roughnessFactor": 0.6
      }
    }
  ],
  "meshes": [
    {
      "name": "Object_0",
      "primitives": [
        {
          "attributes": {
            "NORMAL": 1,
            "POSITION": 0
          },
          "indices": 2,
          "material": 0,
          "mode": 4
        }
      ]
    }
  ],
  "nodes": [
    {
      "children": [
        1
      ],
      "matrix": [
        1.0,
        0.0,
        0.0,
        0.0,
        0.0,
        2.220446049250313e-16,
        -1.0,
        0.0,
        0.0,
        1.0,
        2.220446049250313e-16,
        0.0,
        0.0,
        0.0,
        0.0,
        1.0
      ],
      "name": "Sketchfab_model"
    },
    {
      "children": [
        2
      ],
      "name": "Geode"
    },
    {
      "mesh": 0,
      "name": "Object_2"
    }
  ],
  "scene": 0,
  "scenes": [
    {
      "name": "Sketchfab_Scene",
      "nodes": [
        0
      ]
    }
  ]
}
